<svg xmlns="http://www.w3.org/2000/svg" viewBox="0 0 100 100"><defs><style>.cls-1{fill:#0e0e0e;}</style></defs><title>circle Timmy Black</title><g id="Layer_6" data-name="Layer 6"><rect class="cls-1" x="39.53" y="28.49" width="3.47" height="20.15" rx="0.57"/><rect class="cls-1" x="39.53" y="19.14" width="3.47" height="4.67" rx="0.57"/><path class="cls-1" d="M27.31,47.27a5.52,5.52,0,0,0,1.79,1.2,5.36,5.36,0,0,0,2.19.45,4.9,4.9,0,0,0,2.2-.51A5.38,5.38,0,0,0,35.26,47a6.49,6.49,0,0,0,1.19-2,6.65,6.65,0,0,0,.42-1.85.58.58,0,0,0-.57-.63H34a.57.57,0,0,0-.56.49,3.32,3.32,0,0,1-.59,1.57,1.89,1.89,0,0,1-1.56.84A2.26,2.26,0,0,1,29.18,44a.58.58,0,0,1-.06-.26V32.57a.56.56,0,0,1,.57-.57H35.6a.58.58,0,0,0,.57-.57V29.14a.58.58,0,0,0-.57-.57H29.69a.56.56,0,0,1-.57-.57V24.22a.57.57,0,0,0-.57-.56H26.22a.57.57,0,0,0-.57.56v19.1a5.24,5.24,0,0,0,.45,2.17A5.56,5.56,0,0,0,27.31,47.27Z"/><path class="cls-1" d="M73.87,51.28H71.58a.58.58,0,0,0-.57.57V63.77a4.59,4.59,0,0,1-1.35,3.29,4.67,4.67,0,0,1-1.47,1,4.41,4.41,0,0,1-1.81.37A4.25,4.25,0,0,1,64.59,68a4.53,4.53,0,0,1-2.44-2.45,4.62,4.62,0,0,1-.37-1.82V51.85a.57.57,0,0,0-.57-.57H58.89a.57.57,0,0,0-.57.57V63.77A7.69,7.69,0,0,0,59,66.9a8.29,8.29,0,0,0,4.3,4.29,7.68,7.68,0,0,0,3.12.64,8,8,0,0,0,2.46-.38,8.3,8.3,0,0,0,1.34-.57.56.56,0,0,1,.83.5V72.8a3.9,3.9,0,0,1-.42,1.79,5.06,5.06,0,0,1-1.15,1.47,5.2,5.2,0,0,1-1.71,1,5.71,5.71,0,0,1-1.6.34.57.57,0,0,0-.52.57v2.29a.57.57,0,0,0,.59.57,9.25,9.25,0,0,0,2.88-.61,8.64,8.64,0,0,0,2.8-1.71A8.06,8.06,0,0,0,73.75,76a7.33,7.33,0,0,0,.69-3.16V51.85A.58.58,0,0,0,73.87,51.28Z"/><path class="cls-1" d="M52,53.26a8.1,8.1,0,0,0-2.55-1.73,7.73,7.73,0,0,0-3.13-.65,7.51,7.51,0,0,0-3.58.85,8.53,8.53,0,0,0-2.37,1.82.57.57,0,0,1-.82,0,8.17,8.17,0,0,0-2.35-1.81,7.58,7.58,0,0,0-3.57-.85,7.68,7.68,0,0,0-3.12.65,8.13,8.13,0,0,0-4.29,4.29,7.68,7.68,0,0,0-.65,3.12v12a.58.58,0,0,0,.57.57h2.29A.58.58,0,0,0,29,70.9v-12a4.4,4.4,0,0,1,.36-1.79,4.56,4.56,0,0,1,1-1.45,4.43,4.43,0,0,1,1.47-1,4.57,4.57,0,0,1,1.81-.36,4.4,4.4,0,0,1,1.79.36,4.8,4.8,0,0,1,1.48,1,4.59,4.59,0,0,1,1,1.45,4.41,4.41,0,0,1,.37,1.79v12a.57.57,0,0,0,.57.57h2.28a.57.57,0,0,0,.57-.57v-12A4.4,4.4,0,0,1,42,57.15a4.56,4.56,0,0,1,1-1.45,4.64,4.64,0,0,1,1.47-1,4.57,4.57,0,0,1,1.81-.36,4.45,4.45,0,0,1,1.8.36,4.67,4.67,0,0,1,2.43,2.44,4.25,4.25,0,0,1,.37,1.79v12a.57.57,0,0,0,.57.57H53.8a.57.57,0,0,0,.57-.57v-12a7.68,7.68,0,0,0-.64-3.12A8.17,8.17,0,0,0,52,53.26Z"/><path class="cls-1" d="M50,3.84A46.16,46.16,0,1,0,96.16,50,46.22,46.22,0,0,0,50,3.84Zm0,88.33A42.08,42.08,0,1,1,92.07,50.09,42.07,42.07,0,0,1,50,92.17Z"/><path class="cls-1" d="M72.06,30.42a8.44,8.44,0,0,0-2.56-1.73,8,8,0,0,0-6.71.2,8.92,8.92,0,0,0-2.37,1.82.55.55,0,0,1-.81,0,8.24,8.24,0,0,0-2.36-1.82,8,8,0,0,0-6.69-.2A8.23,8.23,0,0,0,46.27,33a7.69,7.69,0,0,0-.64,3.13v12a.57.57,0,0,0,.57.57h2.28a.57.57,0,0,0,.57-.57v-12a4.3,4.3,0,0,1,.37-1.8,4.82,4.82,0,0,1,1-1.45,5,5,0,0,1,1.47-1,4.62,4.62,0,0,1,1.82-.36,4.44,4.44,0,0,1,1.79.36,5.28,5.28,0,0,1,1.47,1,4.56,4.56,0,0,1,1,1.45,4.45,4.45,0,0,1,.36,1.8v12a.57.57,0,0,0,.57.57h2.28a.57.57,0,0,0,.57-.57v-12a4.46,4.46,0,0,1,.37-1.8,4.82,4.82,0,0,1,1-1.45,5,5,0,0,1,1.47-1,4.62,4.62,0,0,1,1.82-.36,4.44,4.44,0,0,1,1.79.36,5,5,0,0,1,1.45,1,4.67,4.67,0,0,1,1,1.45,4.45,4.45,0,0,1,.36,1.8v12a.58.58,0,0,0,.57.57h2.33a.58.58,0,0,0,.57-.57v-12A7.7,7.7,0,0,0,73.79,33,8.44,8.44,0,0,0,72.06,30.42Z"/></g></svg>