<svg xmlns="http://www.w3.org/2000/svg" viewBox="0 0 109.16 137.84"><defs><style>.cls-1{fill:#f3fbff;}</style></defs><title>Logo White</title><g id="Layer_2" data-name="Layer 2"><g id="Layer_6" data-name="Layer 6"><path class="cls-1" d="M.2,10.08H7.94v11H23.69v7.65H7.94V54a4.6,4.6,0,0,0,1.39,3.38,4.71,4.71,0,0,0,3.47,1.39,4.16,4.16,0,0,0,3.46-1.89,7.51,7.51,0,0,0,1.4-4.58h7.65a15.28,15.28,0,0,1-3.65,10,12.33,12.33,0,0,1-4,3.06,11,11,0,0,1-4.9,1.12,12.27,12.27,0,0,1-4.91-1,12.72,12.72,0,0,1-4-2.7,12.89,12.89,0,0,1-2.7-4A11.9,11.9,0,0,1,.2,54Z"/><path class="cls-1" d="M31.19,0h7.74V10.44H31.19Zm0,20.88h7.74v45H31.19Z"/><path class="cls-1" d="M62.81,19.89a17.06,17.06,0,0,1,8,1.89,18.5,18.5,0,0,1,6.16,5.13,19.62,19.62,0,0,1,6.21-5.13,17,17,0,0,1,8-1.89,17.16,17.16,0,0,1,7,1.44,18.26,18.26,0,0,1,9.59,9.58,17.21,17.21,0,0,1,1.44,7v28h-7.74v-28a9.88,9.88,0,0,0-.81-4,10.49,10.49,0,0,0-5.45-5.44,9.83,9.83,0,0,0-4-.81,10.17,10.17,0,0,0-4,.81,10.38,10.38,0,0,0-3.29,2.2,10.5,10.5,0,0,0-2.2,3.24,9.88,9.88,0,0,0-.81,4v28H73.16v-28a9.88,9.88,0,0,0-.81-4,10.15,10.15,0,0,0-2.25-3.24,11.18,11.18,0,0,0-3.28-2.2,9.88,9.88,0,0,0-4-.81,10.17,10.17,0,0,0-4.05.81,10.33,10.33,0,0,0-3.28,2.2,10.53,10.53,0,0,0-2.21,3.24,9.88,9.88,0,0,0-.81,4v28H44.81v-28a17.21,17.21,0,0,1,1.44-7,18.26,18.26,0,0,1,9.59-9.58A17.16,17.16,0,0,1,62.81,19.89Z"/><path class="cls-1" d="M18,70.89a17,17,0,0,1,8,1.89,18.54,18.54,0,0,1,6.17,5.13,19.62,19.62,0,0,1,6.21-5.13,16.9,16.9,0,0,1,8-1.89,17.21,17.21,0,0,1,7,1.44,18.29,18.29,0,0,1,9.58,9.58,17.21,17.21,0,0,1,1.44,7v28H56.6v-28a9.88,9.88,0,0,0-.81-4,10.43,10.43,0,0,0-5.44-5.44,9.84,9.84,0,0,0-4-.81,10.17,10.17,0,0,0-4.05.81,10.32,10.32,0,0,0-5.48,5.44,9.88,9.88,0,0,0-.81,4v28H28.35v-28a9.88,9.88,0,0,0-.81-4,10.15,10.15,0,0,0-2.25-3.24A11.1,11.1,0,0,0,22,79.44a9.83,9.83,0,0,0-4-.81,10.17,10.17,0,0,0-4.05.81,10.38,10.38,0,0,0-3.29,2.2,10.5,10.5,0,0,0-2.2,3.24,9.88,9.88,0,0,0-.81,4v28H0v-28a17.21,17.21,0,0,1,1.44-7A18.29,18.29,0,0,1,11,72.33,17.21,17.21,0,0,1,18,70.89Z"/><path class="cls-1" d="M91.16,117.68a17.21,17.21,0,0,1-7-1.44,18.29,18.29,0,0,1-9.58-9.58,17.16,17.16,0,0,1-1.44-7V71.79H80.9v27.9a10.16,10.16,0,0,0,.81,4,10.38,10.38,0,0,0,2.2,3.29,10.5,10.5,0,0,0,3.24,2.2,9.88,9.88,0,0,0,4,.81,10.17,10.17,0,0,0,4-.81,10.25,10.25,0,0,0,5.49-5.49,10.16,10.16,0,0,0,.81-4V71.79h7.65v48.05a16.55,16.55,0,0,1-1.53,7.07,17.93,17.93,0,0,1-4.19,5.71,19.69,19.69,0,0,1-6.25,3.83,21.23,21.23,0,0,1-7.74,1.39v-7.65a13.57,13.57,0,0,0,4.72-.81A11.85,11.85,0,0,0,98,127.13a11.18,11.18,0,0,0,2.56-3.28,8.68,8.68,0,0,0,1-4v-5.4a19.28,19.28,0,0,1-4.86,2.39A17.52,17.52,0,0,1,91.16,117.68Z"/></g></g></svg>